# xmcd CD database file
#
# Track frame offsets:
#	150
#	15069
#	25229
#	38606
#	47771
#	60909
#	77754
#	90214
#	104737
#	118805
#	134848
#	148754
#	160949
#	172690
#	183244
#	197571
#	215693
#	232210
#	246672
#	259414
#
# Disc length: 3617 seconds
#
# Revision: 0
# Processed by: cddbd v1.5.2PL0 Copyright (c) Steve Scherf et al.
# Submitted via: CDex 1.51
#
DISCID=160e1f14
DTITLE=Acker Bilk - Sheer Magic
DYEAR=1977
DGENRE=Jazz
TTITLE0=Strangers On The Shore
TTITLE1=She
TTITLE2=Sweet Georgia Brown
TTITLE3=Amazing Grace
TTITLE4=Auf Wiedersehen
TTITLE5=Without You
TTITLE6=Burgundy Street
TTITLE7=If
TTITLE8=Feelings
TTITLE9=Aria
TTITLE10=Send In The Clowns
TTITLE11=Wichita Linesman
TTITLE12=You've Lost That Loving Feelin
TTITLE13=Misty
TTITLE14=Close To You
TTITLE15=Honeysuckle Rose
TTITLE16=Someone To Watch Over Me
TTITLE17=Bridge Over Troubled Water
TTITLE18=Homecoming
TTITLE19=What A Wonderful World
EXTD=YEAR: 1977
EXTT0=
EXTT1=
EXTT2=
EXTT3=
EXTT4=
EXTT5=
EXTT6=
EXTT7=
EXTT8=
EXTT9=
EXTT10=
EXTT11=
EXTT12=
EXTT13=
EXTT14=
EXTT15=
EXTT16=
EXTT17=
EXTT18=
EXTT19=
PLAYORDER=
